<?xml version="1.0" encoding="iso-8859-1"?>
<!-- Generator: Adobe Illustrator 19.0.0, SVG Export Plug-In . SVG Version: 6.00 Build 0)  -->
<svg version="1.1" id="Layer_1" xmlns="http://www.w3.org/2000/svg" xmlns:xlink="http://www.w3.org/1999/xlink" x="0px" y="0px"
	 viewBox="0 0 496 496" style="enable-background:new 0 0 496 496;" xml:space="preserve">
<g>
	<g>
		<g>
			<path d="M447.168,304H448V86.464l-26.624-66.576C416.528,7.808,405.008,0,392,0s-24.528,7.808-29.376,19.88L336,86.464v30.96
				l37.592,15.032C375.056,133.04,376,134.432,376,136s-0.944,2.96-2.4,3.544l-37.6,15.04v50.832l37.592,15.032
				C375.056,221.04,376,222.432,376,224s-0.944,2.96-2.4,3.544l-37.6,15.04V304h0.832c-6.056,3.808-11.696,8.192-16.832,13.128V0H0
				v496h320v-29.128C338.704,484.864,364.056,496,392,496c57.344,0,104-46.656,104-104C496,354.928,476.44,322.416,447.168,304z
				 M352,253.416l27.544-11.016C387.112,239.368,392,232.144,392,224s-4.888-15.368-12.464-18.4L352,194.584v-29.168l27.544-11.016
				C387.112,151.368,392,144.144,392,136s-4.888-15.368-12.464-18.4L352,106.584v-17.04l25.488-63.712
				C379.872,19.856,385.568,16,392,16s12.128,3.856,14.512,9.832L432,89.536v206.488c-12.32-5.152-25.832-8.024-40-8.024
				c-14.168,0-27.68,2.872-40,8.024V253.416z M304,448v32H16V16h288v320h0.504C294.112,352.184,288,371.376,288,392
				c0,20.624,6.112,39.816,16.504,56H304z M392,480c-48.52,0-88-39.48-88-88c0-48.52,39.48-88,88-88c48.52,0,88,39.48,88,88
				C480,440.52,440.52,480,392,480z"/>
			<path d="M392,328c-35.288,0-64,28.712-64,64c0,35.288,28.712,64,64,64c35.288,0,64-28.712,64-64C456,356.712,427.288,328,392,328
				z M392,440c-26.472,0-48-21.528-48-48s21.528-48,48-48s48,21.528,48,48S418.472,440,392,440z"/>
			<path d="M272,320v128H48V274.192C59.736,287.528,76.88,296,96,296c35.288,0,64-28.712,64-64c0-35.288-28.712-64-64-64
				c-19.12,0-36.264,8.472-48,21.808V48h224v256h16V32H32v432h256v-72v-72H272z M96,240c-4.416,0-8-3.592-8-8s3.584-8,8-8
				s8,3.592,8,8S100.416,240,96,240z M96,184c26.472,0,48,21.528,48,48c0,23.736-17.336,43.448-40,47.28v-24.752
				c9.288-3.312,16-12.112,16-22.528c0-13.232-10.768-24-24-24s-24,10.768-24,24c0,10.416,6.712,19.216,16,22.528v24.752
				c-22.664-3.832-40-23.544-40-47.28C48,205.528,69.528,184,96,184z"/>
			<rect x="176" y="224" width="16" height="16"/>
			<rect x="208" y="224" width="16" height="16"/>
			<rect x="240" y="224" width="16" height="16"/>
		</g>
	</g>
</g>
<g>
</g>
<g>
</g>
<g>
</g>
<g>
</g>
<g>
</g>
<g>
</g>
<g>
</g>
<g>
</g>
<g>
</g>
<g>
</g>
<g>
</g>
<g>
</g>
<g>
</g>
<g>
</g>
<g>
</g>
</svg>
