<svg viewBox="-138 0 504 504.6393" xmlns="http://www.w3.org/2000/svg"><path d="m228.535156 114.097656c-.007812-59.367187-45.53125-108.8125-104.695312-113.707031-59.164063-4.898437-112.199219 36.386719-121.964844 94.945313-9.765625 58.558593 27 114.820312 84.550781 129.390624v271.914063c0 4.417969 3.582031 8 8 8h33c4.417969 0 8-3.582031 8-8v-7h41c4.417969 0 8-3.582031 8-8v-27c0-4.417969-3.582031-8-8-8h-41v-10h68c4.417969 0 8-3.582031 8-8v-28c0-4.417969-3.582031-8-8-8h-68v-11h41c4.417969 0 8-3.582031 8-8v-28c0-4.417969-3.582031-8-8-8h-38v-111.980469c52.53125-11.378906 90.039063-57.816406 90.109375-111.5625zm-212.214844 0c.003907-51.964844 40.523438-94.910156 92.398438-97.933594 51.875-3.023437 97.109375 34.925782 103.148438 86.539063 6.042968 51.609375-29.207032 98.976563-80.378907 108.015625-.351562-.050781-.707031-.078125-1.0625-.078125-1.167969 0-2.320312.257813-3.378906.753906-27.984375 3.617188-56.167969-4.984375-77.363281-23.609375-21.195313-18.625-33.351563-45.472656-33.363282-73.6875zm114.105469 239.542969h38v12h-41c-4.417969 0-8 3.582031-8 8v27c0 4.417969 3.582031 8 8 8h68v12h-68c-4.417969 0-8 3.582031-8 8v26c0 4.417969 3.582031 8 8 8h41v11h-41c-4.417969 0-8 3.582031-8 8v7h-17v-261.066406c3.988281.421875 7.992188.628906 12 .632812 2.691407 0 5.355469-.101562 8-.285156v117.71875c0 4.417969 3.582031 8 8 8zm0 0"/><path d="m165.34375 114.097656c0-28.121094-22.796875-50.917968-50.917969-50.917968-28.121093 0-50.917969 22.796874-50.917969 50.917968s22.796876 50.917969 50.917969 50.917969c28.109375-.03125 50.886719-22.808594 50.917969-50.917969zm-85.835938 0c0-19.285156 15.632813-34.917968 34.917969-34.917968 19.285157 0 34.917969 15.632812 34.917969 34.917968s-15.632812 34.917969-34.917969 34.917969c-19.273437-.019531-34.894531-15.640625-34.917969-34.917969zm0 0"/></svg>